<?xml version="1.0" encoding="utf-8"?>
<!-- Generator: Adobe Illustrator 22.1.0, SVG Export Plug-In . SVG Version: 6.00 Build 0)  -->
<svg version="1.1" id="Layer_3" xmlns="http://www.w3.org/2000/svg" xmlns:xlink="http://www.w3.org/1999/xlink" x="0px" y="0px"
	 viewBox="0 0 64 64" style="enable-background:new 0 0 64 64;" xml:space="preserve">
<style type="text/css">
	.st0{fill:#E5E5E5;stroke:#556A8A;stroke-width:2;stroke-miterlimit:10;}
	.st1{fill:#2BC7F4;}
	.st2{fill:none;stroke:#556A8A;stroke-width:2;stroke-miterlimit:10;}
</style>
<ellipse class="st0" cx="32.2" cy="48" rx="30.7" ry="10.8"/>
<rect x="1.6" y="45.4" class="st1" width="61.3" height="5.1"/>
<ellipse class="st2" cx="32.2" cy="48" rx="30.7" ry="10.8"/>
<path class="st2" d="M9.8,16c-2.2,0-4,1.8-4,4s1.8,4,4,4s4-1.8,4-4S12,16,9.8,16z"/>
<path class="st2" d="M32.5,11.1c-2.2,0-4,1.8-4,4s1.8,4,4,4s4-1.8,4-4S34.7,11.1,32.5,11.1z"/>
<path class="st2" d="M54.4,16c-2.2,0-4,1.8-4,4s1.8,4,4,4s4-1.8,4-4S56.6,16,54.4,16z"/>
<path class="st2" d="M18.4,31.2c0-0.4-0.1-0.8-0.3-1.2c-0.2-0.4-0.5-0.8-0.8-1.1c-0.3-0.3-0.7-0.6-1.1-0.8c-0.4-0.2-0.8-0.3-1.2-0.3
	H4.5c-0.4,0-0.8,0.1-1.3,0.3c-0.4,0.2-0.8,0.5-1.1,0.8c-0.3,0.3-0.6,0.7-0.8,1.1C1.1,30.4,1,30.8,1,31.2v8.2c0,0,0,0.1,0,0.1
	c4-3.2,10.3-5.3,17.4-6.5V31.2z"/>
<path class="st2" d="M40.8,33.2"/>
<path class="st2" d="M63.1,31.2c0-0.4-0.1-0.8-0.3-1.2c-0.2-0.4-0.5-0.8-0.8-1.1c-0.3-0.3-0.7-0.6-1.1-0.8c-0.4-0.2-0.8-0.3-1.2-0.3
	H49.2c-0.4,0-0.8,0.1-1.3,0.3c-0.4,0.2-0.8,0.5-1.1,0.8c-0.3,0.3-0.6,0.7-0.8,1.1c-0.2,0.4-0.3,0.8-0.3,1.2v1.6
	c7,1.1,13.2,3.1,17.4,6.1V31.2z"/>
<path class="st2" d="M36.9,22.8h1.2c0.4,0,0.8,0.1,1.3,0.3c0.4,0.2,0.8,0.5,1.1,0.8c0.3,0.3,0.6,0.7,0.8,1.1
	c0.2,0.4,0.3,0.8,0.3,1.3v6c-3-0.3-6.1-0.5-9.1-0.5h0c-3,0-6.1,0.2-9.1,0.5v-6c0-0.4,0.1-0.8,0.3-1.3c0.2-0.4,0.5-0.8,0.8-1.1
	c0.3-0.3,0.7-0.6,1.1-0.8c0.4-0.2,0.8-0.3,1.3-0.3h10.4"/>
</svg>
